PathFileType	4	(X/Y/Z)	Kaydara	
DataRate	CameraRate	NumFrames	NumMarkers	Units	OrigDataRate	OrigDataStartFrame	OrigNumFrames	
60.00	60.00	4	74	mm	60.00	363	201	
Frame#	Time	N_lasi			N_rasi			N_rpsi			N_lpsi			N_fneck			N_bneck			N_fhead			N_rhead			N_lhead			N_rshld			N_relbtop			N_relbext			N_relblow			N_rwrext			N_rwrtop			N_rwrlow			N_lshld			N_lelbext			N_lelblow			N_lelbtop			N_lwrext			N_lwrtop			N_lwrlow			N_rtopleg			N_ltopleg			N_rkneefr			N_rkneebk			N_rkneeis			N_lkneefr			N_lknssbk			N_lkneeis			N_rankfr			N_rankis			N_rankbk			N_lankfr			N_lankbk			N_lankis			D_lasi			D_rasi			D_rpsi			D_lpsi			D_fneck			D_bneck			D_fhead			D_rhead			D_lhead			D_rshld			D_relbtop			D_relbext			D_relblow			D_rwrext			D_rwrtop			D_rwrlow			D_lshld			D_lelbext			D_lelblow			D_lelbtop			D_lwrext			D_lwrtop			D_lwrlow			D_rtopleg			D_ltopleg			D_rkneefr			D_rkneebk			D_rkneeis			D_lkneefr			D_lknssbk			D_lkneeis			D_rankfr			D_rankis			D_rankbk			D_lankfr			D_lankbk			D_lankis			
		X1	Y1	Z1	X2	Y2	Z2	X3	Y3	Z3	X4	Y4	Z4	X5	Y5	Z5	X6	Y6	Z6	X7	Y7	Z7	X8	Y8	Z8	X9	Y9	Z9	X10	Y10	Z10	X11	Y11	Z11	X12	Y12	Z12	X13	Y13	Z13	X14	Y14	Z14	X15	Y15	Z15	X16	Y16	Z16	X17	Y17	Z17	X18	Y18	Z18	X19	Y19	Z19	X20	Y20	Z20	X21	Y21	Z21	X22	Y22	Z22	X23	Y23	Z23	X24	Y24	Z24	X25	Y25	Z25	X26	Y26	Z26	X27	Y27	Z27	X28	Y28	Z28	X29	Y29	Z29	X30	Y30	Z30	X31	Y31	Z31	X32	Y32	Z32	X33	Y33	Z33	X34	Y34	Z34	X35	Y35	Z35	X36	Y36	Z36	X37	Y37	Z37	X38	Y38	Z38	X39	Y39	Z39	X40	Y40	Z40	X41	Y41	Z41	X42	Y42	Z42	X43	Y43	Z43	X44	Y44	Z44	X45	Y45	Z45	X46	Y46	Z46	X47	Y47	Z47	X48	Y48	Z48	X49	Y49	Z49	X50	Y50	Z50	X51	Y51	Z51	X52	Y52	Z52	X53	Y53	Z53	X54	Y54	Z54	X55	Y55	Z55	X56	Y56	Z56	X57	Y57	Z57	X58	Y58	Z58	X59	Y59	Z59	X60	Y60	Z60	X61	Y61	Z61	X62	Y62	Z62	X63	Y63	Z63	X64	Y64	Z64	X65	Y65	Z65	X66	Y66	Z66	X67	Y67	Z67	X68	Y68	Z68	X69	Y69	Z69	X70	Y70	Z70	X71	Y71	Z71	X72	Y72	Z72	X73	Y73	Z73	X74	Y74	Z74	

176	6.033	-454.05460	1095.02129	1269.12552	-573.78410	1134.46648	1487.78229	-833.67920	1190.52719	1385.62958	-670.36018	1161.59073	1077.68318	-690.92072	1543.51959	1175.10826	-642.83791	1642.36145	1273.94554	-390.68787	1684.68033	1263.95462	-572.39864	1745.67780	1335.13229	-536.88148	1718.23120	1183.46458	-713.90579	1504.05762	1512.14478	-823.32756	1210.75180	1604.98611	-850.63766	1171.81381	1573.13339	-733.71162	1213.36624	1607.25037	-711.36337	917.53174	1667.40814	-666.69594	930.57915	1656.34186	-662.24548	925.39101	1608.33740	-587.45136	1484.48273	1028.37021	-617.12151	1140.13725	1056.50230	-536.42456	1148.60161	999.71329	-619.14566	1146.92947	971.93756	-547.79266	852.14005	1016.61446	-507.44717	848.73322	1042.29736	-535.29743	859.27490	1084.85802	-730.12474	999.94713	1545.07889	-609.62460	987.52357	1073.78212	-584.22615	538.03253	1605.45410	-709.27483	573.23334	1537.75925	-583.52295	537.62680	1468.43811	-545.23987	508.94585	1334.18045	-631.85791	514.66312	1232.66182	-686.15257	516.26114	1365.21698	-867.40425	235.47613	1483.64120	-817.82578	231.80260	1421.37634	-890.37460	267.65841	1394.46655	-610.60024	153.31357	1355.80215	-672.82539	146.82148	1301.43219	-678.76343	162.09862	1389.55658	-574.76357	1043.42224	-292.87733	-617.32407	1058.27179	-577.00863	-410.64365	1154.75998	-556.74320	-380.66387	1134.07593	-337.76699	-619.84524	1535.44388	-401.21685	-512.02110	1617.15042	-443.02219	-717.28027	1700.07736	-321.53973	-628.61694	1744.76364	-476.43085	-543.44353	1733.36914	-346.27766	-615.32124	1494.12292	-625.94559	-573.57082	1172.24403	-741.87943	-586.59904	1154.61960	-670.31433	-657.67426	1196.70319	-740.08316	-684.61746	946.07300	-788.02849	-736.89491	954.83772	-763.29552	-711.73370	951.05339	-713.75969	-444.67674	1497.42630	-230.04232	-431.30489	1160.97572	-250.79988	-421.25839	1200.68077	-157.15667	-364.26884	1173.22258	-208.02605	-419.90849	941.75629	-123.77716	-464.52530	947.02034	-118.82223	-482.57610	945.67238	-167.26030	-543.48335	1010.88104	-647.96562	-432.91496	1005.39207	-260.80879	-700.90195	499.09706	-562.00932	-616.56357	506.45164	-630.87978	-579.07352	480.76878	-515.73597	-567.61467	447.40566	-309.40256	-465.21168	513.09662	-297.20041	-528.70426	462.03556	-405.51517	-669.40186	150.03341	-604.95445	-618.71864	147.64728	-559.99084	-596.07918	145.73038	-639.67690	-283.35938	222.52867	-379.84547	-225.73767	271.09241	-352.05139	-263.30208	254.23555	-429.98734 
177	6.050	-441.03153	1098.80638	1268.80531	-554.73175	1138.21609	1490.07767	-817.24358	1192.71690	1394.04922	-659.95506	1162.72881	1083.98323	-676.85791	1545.14374	1179.74449	-628.77502	1643.98575	1278.58185	-376.80069	1685.84106	1264.75128	-557.59346	1747.68387	1338.72681	-524.31480	1719.95224	1186.69418	-695.58403	1505.81680	1517.94388	-804.62967	1212.37396	1611.98029	-832.07703	1173.37204	1579.53796	-715.28816	1214.86038	1613.06549	-692.16331	918.98674	1673.66028	-647.66304	932.26997	1662.34085	-642.61230	927.26807	1615.05020	-577.85000	1486.43158	1032.06970	-603.07644	1141.53229	1061.85753	-524.16237	1150.69832	1004.20746	-607.01694	1147.83211	977.77168	-530.53795	854.44618	1024.00848	-489.73480	852.24792	1049.20891	-517.04136	862.25327	1092.27661	-707.09602	1001.84731	1548.93173	-602.92534	988.60229	1077.51900	-551.98357	545.26947	1608.35312	-681.50566	574.25465	1545.75729	-558.86276	542.54875	1473.47992	-541.92047	507.99366	1334.28970	-630.05569	515.64423	1234.28520	-682.14531	516.83064	1368.07083	-822.37679	225.39488	1507.66479	-776.48399	222.67874	1444.47189	-852.37778	253.02076	1419.95453	-609.92008	153.10133	1355.54398	-673.00331	147.14618	1302.13470	-677.49802	162.34228	1389.72519	-585.97637	1045.41107	-291.11307	-632.58167	1059.49471	-574.83776	-425.71716	1157.32277	-558.23330	-391.94492	1135.51544	-339.99714	-631.63521	1536.93039	-399.09538	-525.11158	1619.18701	-442.93999	-728.34114	1701.00128	-317.45636	-643.07076	1746.36017	-473.96015	-555.44365	1735.31326	-345.70797	-632.81143	1495.59692	-623.13099	-603.62362	1173.64388	-741.83502	-611.71719	1155.61775	-671.22658	-686.89720	1200.08499	-735.14107	-722.43629	950.37247	-782.67830	-773.16475	960.46524	-755.19775	-745.08514	955.34294	-707.79404	-450.50373	1499.53247	-232.39237	-433.17291	1163.53371	-253.50628	-421.91326	1203.16216	-159.95358	-365.42191	1177.08160	-211.89663	-414.20288	944.00146	-127.17896	-458.76816	948.44551	-121.50270	-476.74118	947.17896	-170.09966	-559.51077	1012.68059	-646.70341	-443.93860	1007.18185	-261.06722	-708.01979	497.72396	-561.48170	-624.32999	506.47163	-630.70595	-585.58266	481.38378	-515.91949	-597.43534	452.97886	-301.45536	-494.29893	517.89013	-292.73193	-560.56011	466.37302	-397.31766	-670.87479	149.40659	-604.41479	-619.91978	147.83802	-559.73377	-597.54730	146.24258	-639.67438	-310.74135	233.55534	-378.79578	-252.37881	282.31535	-353.67912	-291.64631	264.08213	-429.96830 
178	6.067	-427.53914	1101.37314	1267.67456	-535.17632	1141.28296	1491.91132	-801.26480	1194.58679	1402.54837	-650.32959	1163.89626	1089.67506	-662.90154	1546.30112	1184.41544	-614.81865	1645.14313	1283.25272	-362.73781	1686.76865	1265.74379	-542.62707	1748.83698	1342.46063	-511.18687	1721.03470	1189.89853	-677.36710	1506.71539	1524.08005	-785.55740	1213.75023	1618.98529	-813.05916	1174.88815	1586.41312	-696.32484	1216.51649	1619.81079	-673.71597	920.20523	1679.74442	-628.83076	933.42239	1668.41156	-624.93050	928.41377	1620.56534	-568.44433	1487.48672	1035.64682	-588.94783	1142.15515	1067.05002	-511.68079	1152.04529	1008.52127	-594.94026	1147.94006	983.46054	-513.41408	855.95688	1031.23619	-472.18548	855.02808	1055.81383	-499.34322	864.00642	1099.07715	-685.29251	1006.00151	1553.90396	-596.43829	990.49637	1079.37057	-521.16524	551.19606	1608.83301	-655.03090	574.48219	1552.21832	-535.42103	546.32332	1475.89935	-538.48125	506.86611	1334.64783	-627.42260	516.45367	1235.71396	-677.97958	517.42207	1370.40863	-776.13991	214.66242	1532.32208	-732.02538	210.96258	1469.00238	-812.42142	236.00805	1445.60059	-609.33022	152.83407	1355.35782	-672.62405	147.54011	1302.42920	-676.17126	162.57500	1390.25986	-596.65730	1047.42409	-289.72097	-647.33681	1061.60973	-572.68806	-440.21294	1160.22812	-558.51402	-403.19744	1137.03819	-341.33095	-643.10638	1538.62915	-396.63471	-537.77870	1621.21353	-442.51640	-738.64822	1702.13638	-312.94575	-656.82976	1748.15063	-471.06419	-566.80370	1737.26913	-344.60220	-649.50607	1497.34344	-620.03113	-633.25542	1175.40695	-740.02975	-639.33796	1157.34818	-667.39922	-715.27222	1203.85757	-728.67905	-760.03349	955.57739	-775.79849	-808.94585	966.88217	-745.66338	-778.11760	960.51285	-700.28366	-456.13976	1501.93665	-234.75996	-434.37412	1166.29257	-256.43696	-422.26982	1206.00990	-162.88040	-366.22124	1181.20163	-215.97883	-409.01775	946.80740	-130.74038	-453.50704	950.38315	-124.81199	-471.88362	949.45419	-173.06885	-574.96002	1014.86771	-644.92546	-455.02911	1009.12415	-260.61630	-714.16679	496.48338	-561.64276	-630.67036	506.77055	-630.77789	-591.63490	482.02843	-515.66711	-625.93098	459.33216	-292.91925	-521.71276	523.23689	-287.36841	-589.85973	471.91536	-390.22484	-672.07626	149.03410	-604.46423	-621.19740	148.23191	-559.76734	-598.70800	146.81437	-639.97658	-339.82475	242.48957	-377.62749	-280.52771	290.59744	-355.23788	-321.58524	272.05267	-429.51180 
179	6.083	-413.93703	1102.36633	1266.11137	-515.42000	1143.32199	1493.10715	-784.37737	1195.53764	1411.49170	-641.18614	1165.04776	1095.04341	-648.57727	1546.92139	1188.97385	-600.49435	1645.76324	1287.81097	-348.96297	1686.57623	1266.36345	-527.82776	1749.58557	1345.86288	-498.28720	1721.62964	1192.57622	-658.14400	1507.67670	1529.57535	-766.29807	1214.89967	1626.61102	-793.65089	1175.89882	1593.57941	-676.76781	1217.38846	1626.51794	-655.01129	920.88615	1686.34979	-610.14065	933.81836	1674.53552	-606.67530	929.00520	1626.75903	-559.18156	1488.01498	1039.35028	-574.72305	1142.07451	1072.18788	-499.16603	1152.62939	1012.82684	-582.70462	1147.40387	989.04839	-496.62525	856.82693	1038.32268	-454.91413	857.04659	1062.14180	-480.26737	866.43257	1106.55991	-663.38051	1010.25116	1559.10446	-589.65084	991.19102	1083.10013	-492.16206	555.38879	1607.06818	-629.93607	573.48270	1557.96890	-513.49113	548.43124	1475.69824	-534.46537	505.67749	1334.75769	-624.17622	516.94553	1237.13730	-673.63625	517.82246	1372.27097	-727.67220	201.08335	1554.04007	-688.02322	199.40943	1488.81210	-769.98489	217.85603	1470.47562	-608.66699	152.67464	1355.25238	-671.96571	148.00210	1302.59689	-675.42061	162.75305	1390.37689	-607.37293	1049.60052	-288.92021	-661.63597	1063.92410	-570.25318	-454.40201	1162.97348	-558.00827	-414.76162	1138.79585	-341.55205	-654.21844	1540.47440	-393.60798	-550.13237	1623.42010	-441.75259	-748.62038	1703.60184	-307.80373	-669.97665	1750.28580	-467.35531	-577.63393	1739.20731	-342.85938	-665.62286	1499.36768	-616.65779	-662.11212	1177.42523	-736.67519	-665.60776	1159.52087	-663.40790	-742.69981	1208.10402	-721.29341	-796.90445	961.52679	-766.87599	-843.87680	974.15779	-734.26147	-810.95520	966.82602	-690.34775	-461.74751	1504.65805	-237.02848	-435.71461	1169.36546	-259.56551	-422.34146	1209.21898	-165.98827	-366.98250	1185.53040	-220.54054	-404.22123	950.07446	-134.59291	-448.67634	952.95799	-128.26000	-467.93365	952.19879	-176.16871	-589.57325	1016.97243	-643.23456	-466.34426	1011.40480	-259.74665	-719.10759	495.72235	-561.92745	-635.56240	507.37545	-630.69901	-596.71810	482.80994	-515.23106	-653.00423	466.39591	-283.80556	-547.40891	528.48152	-281.57892	-618.82351	477.60300	-382.16682	-673.05389	149.02594	-604.41868	-622.32754	148.82202	-559.67846	-599.72462	147.49084	-639.99779	-371.05167	247.92658	-376.28239	-310.65613	294.97549	-356.35246	-353.83167	276.93285	-429.14585 
